<svg xmlns="http://www.w3.org/2000/svg" xmlns:xlink="http://www.w3.org/1999/xlink" width="446.127" height="144.789" viewBox="0 0 446.127 144.789"><defs><style>.a,.i{fill:rgba(147,216,228,0.55);}.b,.j{fill:rgba(170,225,193,0.47);}.c,.k{fill:rgba(170,225,193,0.51);}.d,.l{fill:rgba(165,222,232,0.51);}.e,.m{fill:rgba(168,228,223,0.49);}.f,.n{fill:rgba(168,228,223,0.56);}.g,.o{fill:rgba(180,230,158,0.52);}.h,.p{fill:rgba(180,230,158,0.48);}.i,.j,.k,.l,.m,.n,.o,.p{mix-blend-mode:overlay;isolation:isolate;}.q{fill:#f5f9ff;font-size:70px;font-family:CooperBlack, Cooper;}.r{filter:url(#q);}.s{filter:url(#o);}.t{filter:url(#m);}.u{filter:url(#k);}.v{filter:url(#i);}.w{filter:url(#g);}.x{filter:url(#e);}.y{filter:url(#c);}.z{filter:url(#a);}</style><filter id="a" x="24.192" y="0.045" width="72.422" height="72.249" filterUnits="userSpaceOnUse"><feOffset input="SourceAlpha"/><feGaussianBlur stdDeviation="4" result="b"/><feFlood flood-opacity="0.631"/><feComposite operator="in" in2="b"/><feComposite in="SourceGraphic"/></filter><filter id="c" x="48.383" y="24.195" width="72.422" height="72.249" filterUnits="userSpaceOnUse"><feOffset input="SourceAlpha"/><feGaussianBlur stdDeviation="4" result="d"/><feFlood flood-opacity="0.631"/><feComposite operator="in" in2="d"/><feComposite in="SourceGraphic"/></filter><filter id="e" x="48.428" y="0" width="72.332" height="72.339" filterUnits="userSpaceOnUse"><feOffset input="SourceAlpha"/><feGaussianBlur stdDeviation="4" result="f"/><feFlood flood-opacity="0.631"/><feComposite operator="in" in2="f"/><feComposite in="SourceGraphic"/></filter><filter id="g" x="24.236" y="24.15" width="72.332" height="72.339" filterUnits="userSpaceOnUse"><feOffset input="SourceAlpha"/><feGaussianBlur stdDeviation="4" result="h"/><feFlood flood-opacity="0.631"/><feComposite operator="in" in2="h"/><feComposite in="SourceGraphic"/></filter><filter id="i" x="0.045" y="48.3" width="72.332" height="72.339" filterUnits="userSpaceOnUse"><feOffset input="SourceAlpha"/><feGaussianBlur stdDeviation="4" result="j"/><feFlood flood-opacity="0.631"/><feComposite operator="in" in2="j"/><feComposite in="SourceGraphic"/></filter><filter id="k" x="0" y="24.195" width="72.422" height="72.249" filterUnits="userSpaceOnUse"><feOffset input="SourceAlpha"/><feGaussianBlur stdDeviation="4" result="l"/><feFlood flood-opacity="0.631"/><feComposite operator="in" in2="l"/><feComposite in="SourceGraphic"/></filter><filter id="m" x="24.192" y="48.345" width="72.422" height="72.249" filterUnits="userSpaceOnUse"><feOffset input="SourceAlpha"/><feGaussianBlur stdDeviation="4" result="n"/><feFlood flood-opacity="0.631"/><feComposite operator="in" in2="n"/><feComposite in="SourceGraphic"/></filter><filter id="o" x="24.236" y="72.45" width="72.332" height="72.339" filterUnits="userSpaceOnUse"><feOffset input="SourceAlpha"/><feGaussianBlur stdDeviation="4" result="p"/><feFlood flood-opacity="0.631"/><feComposite operator="in" in2="p"/><feComposite in="SourceGraphic"/></filter><filter id="q" x="72.127" y="36.42" width="374" height="104" filterUnits="userSpaceOnUse"><feOffset input="SourceAlpha"/><feGaussianBlur stdDeviation="4" result="r"/><feFlood flood-opacity="0.631"/><feComposite operator="in" in2="r"/><feComposite in="SourceGraphic"/></filter></defs><g transform="translate(12 12)"><g class="z" transform="matrix(1, 0, 0, 1, -12, -12)"><path class="a" d="M22.3,0a12.075,12.075,0,1,1,0,24.15c-6.23-.088-8.13-1.089-11.5,2.28-3.085,3.08,4.242,10.4-5.116,19.189-4.738,3.329-10.822,4.047-16.65-1.093-4.142-6.093-4.007-10.838,0-16.4,8.4-8.3,14.371.1,18.748-5.608,2.825-2.955,2.427-9.263,2.427-10.447A12.085,12.085,0,0,1,22.3,0Z" transform="translate(50.21 12.04)"/></g><g class="y" transform="matrix(1, 0, 0, 1, -12, -12)"><path class="b" d="M22.3,0a12.075,12.075,0,1,1,0,24.15c-6.23-.088-8.13-1.089-11.5,2.28-3.085,3.08,4.242,10.4-5.116,19.189-4.738,3.329-10.822,4.047-16.65-1.093-4.142-6.093-4.007-10.838,0-16.4,8.4-8.3,14.371.1,18.748-5.608,2.825-2.955,2.427-9.263,2.427-10.447A12.085,12.085,0,0,1,22.3,0Z" transform="translate(74.41 36.19)"/></g><g class="x" transform="matrix(1, 0, 0, 1, -12, -12)"><path class="c" d="M36.264,0a12.1,12.1,0,0,1,0,24.192c-6.22-.088-8.116-1.091-11.485,2.284C21.7,29.561,29.014,36.9,19.672,45.7c-4.73,3.335-10.8,4.054-16.621-1.1-4.134-6.1-4-10.857,0-16.423,8.388-8.318,14.346.1,18.716-5.618,2.82-2.96,2.422-9.279,2.422-10.465A12.085,12.085,0,0,1,36.264,0Z" transform="translate(60.43 60.34) rotate(-90)"/></g><g class="w" transform="matrix(1, 0, 0, 1, -12, -12)"><path class="d" d="M36.264,0a12.1,12.1,0,0,1,0,24.192c-6.22-.088-8.116-1.091-11.485,2.284C21.7,29.561,29.014,36.9,19.672,45.7c-4.73,3.335-10.8,4.054-16.621-1.1-4.134-6.1-4-10.857,0-16.423,8.388-8.318,14.346.1,18.716-5.618,2.82-2.96,2.422-9.279,2.422-10.465A12.085,12.085,0,0,1,36.264,0Z" transform="translate(36.24 84.49) rotate(-90)"/></g><g class="v" transform="matrix(1, 0, 0, 1, -12, -12)"><path class="e" d="M36.264,0a12.1,12.1,0,0,1,0,24.192c-6.22-.088-8.116-1.091-11.485,2.284C21.7,29.561,29.014,36.9,19.672,45.7c-4.73,3.335-10.8,4.054-16.621-1.1-4.134-6.1-4-10.857,0-16.423,8.388-8.318,14.346.1,18.716-5.618,2.82-2.96,2.422-9.279,2.422-10.465A12.085,12.085,0,0,1,36.264,0Z" transform="translate(12.04 108.64) rotate(-90)"/></g><g class="u" transform="matrix(1, 0, 0, 1, -12, -12)"><path class="f" d="M22.3,0a12.075,12.075,0,1,1,0,24.15c-6.23-.088-8.13-1.089-11.5,2.28-3.085,3.08,4.242,10.4-5.116,19.189-4.738,3.329-10.822,4.047-16.65-1.093-4.142-6.093-4.007-10.838,0-16.4,8.4-8.3,14.371.1,18.748-5.608,2.825-2.955,2.427-9.263,2.427-10.447A12.085,12.085,0,0,1,22.3,0Z" transform="translate(26.02 36.19)"/></g><g class="t" transform="matrix(1, 0, 0, 1, -12, -12)"><path class="g" d="M22.3,0a12.075,12.075,0,1,1,0,24.15c-6.23-.088-8.13-1.089-11.5,2.28-3.085,3.08,4.242,10.4-5.116,19.189-4.738,3.329-10.822,4.047-16.65-1.093-4.142-6.093-4.007-10.838,0-16.4,8.4-8.3,14.371.1,18.748-5.608,2.825-2.955,2.427-9.263,2.427-10.447A12.085,12.085,0,0,1,22.3,0Z" transform="translate(50.21 60.34)"/></g><g class="s" transform="matrix(1, 0, 0, 1, -12, -12)"><path class="h" d="M36.264,0a12.1,12.1,0,0,1,0,24.192c-6.22-.088-8.116-1.091-11.485,2.284C21.7,29.561,29.014,36.9,19.672,45.7c-4.73,3.335-10.8,4.054-16.621-1.1-4.134-6.1-4-10.857,0-16.423,8.388-8.318,14.346.1,18.716-5.618,2.82-2.96,2.422-9.279,2.422-10.465A12.085,12.085,0,0,1,36.264,0Z" transform="translate(84.57 84.45) rotate(90)"/></g><path class="i" d="M22.3,0a12.075,12.075,0,1,1,0,24.15c-6.23-.088-8.13-1.089-11.5,2.28-3.085,3.08,4.242,10.4-5.116,19.189-4.738,3.329-10.822,4.047-16.65-1.093-4.142-6.093-4.007-10.838,0-16.4,8.4-8.3,14.371.1,18.748-5.608,2.825-2.955,2.427-9.263,2.427-10.447A12.085,12.085,0,0,1,22.3,0Z" transform="translate(38.214 0.045)"/><path class="j" d="M22.3,0a12.075,12.075,0,1,1,0,24.15c-6.23-.088-8.13-1.089-11.5,2.28-3.085,3.08,4.242,10.4-5.116,19.189-4.738,3.329-10.822,4.047-16.65-1.093-4.142-6.093-4.007-10.838,0-16.4,8.4-8.3,14.371.1,18.748-5.608,2.825-2.955,2.427-9.263,2.427-10.447A12.085,12.085,0,0,1,22.3,0Z" transform="translate(62.406 24.195)"/><path class="k" d="M36.264,0a12.1,12.1,0,0,1,0,24.192c-6.22-.088-8.116-1.091-11.485,2.284C21.7,29.561,29.014,36.9,19.672,45.7c-4.73,3.335-10.8,4.054-16.621-1.1-4.134-6.1-4-10.857,0-16.423,8.388-8.318,14.346.1,18.716-5.618,2.82-2.96,2.422-9.279,2.422-10.465A12.085,12.085,0,0,1,36.264,0Z" transform="translate(48.428 48.339) rotate(-90)"/><path class="l" d="M36.264,0a12.1,12.1,0,0,1,0,24.192c-6.22-.088-8.116-1.091-11.485,2.284C21.7,29.561,29.014,36.9,19.672,45.7c-4.73,3.335-10.8,4.054-16.621-1.1-4.134-6.1-4-10.857,0-16.423,8.388-8.318,14.346.1,18.716-5.618,2.82-2.96,2.422-9.279,2.422-10.465A12.085,12.085,0,0,1,36.264,0Z" transform="translate(24.236 72.489) rotate(-90)"/><path class="m" d="M36.264,0a12.1,12.1,0,0,1,0,24.192c-6.22-.088-8.116-1.091-11.485,2.284C21.7,29.561,29.014,36.9,19.672,45.7c-4.73,3.335-10.8,4.054-16.621-1.1-4.134-6.1-4-10.857,0-16.423,8.388-8.318,14.346.1,18.716-5.618,2.82-2.96,2.422-9.279,2.422-10.465A12.085,12.085,0,0,1,36.264,0Z" transform="translate(0.045 96.639) rotate(-90)"/><path class="n" d="M22.3,0a12.075,12.075,0,1,1,0,24.15c-6.23-.088-8.13-1.089-11.5,2.28-3.085,3.08,4.242,10.4-5.116,19.189-4.738,3.329-10.822,4.047-16.65-1.093-4.142-6.093-4.007-10.838,0-16.4,8.4-8.3,14.371.1,18.748-5.608,2.825-2.955,2.427-9.263,2.427-10.447A12.085,12.085,0,0,1,22.3,0Z" transform="translate(14.023 24.195)"/><path class="o" d="M22.3,0a12.075,12.075,0,1,1,0,24.15c-6.23-.088-8.13-1.089-11.5,2.28-3.085,3.08,4.242,10.4-5.116,19.189-4.738,3.329-10.822,4.047-16.65-1.093-4.142-6.093-4.007-10.838,0-16.4,8.4-8.3,14.371.1,18.748-5.608,2.825-2.955,2.427-9.263,2.427-10.447A12.085,12.085,0,0,1,22.3,0Z" transform="translate(38.214 48.345)"/><path class="p" d="M36.264,0a12.1,12.1,0,0,1,0,24.192c-6.22-.088-8.116-1.091-11.485,2.284C21.7,29.561,29.014,36.9,19.672,45.7c-4.73,3.335-10.8,4.054-16.621-1.1-4.134-6.1-4-10.857,0-16.423,8.388-8.318,14.346.1,18.716-5.618,2.82-2.96,2.422-9.279,2.422-10.465A12.085,12.085,0,0,1,36.264,0Z" transform="translate(72.569 72.45) rotate(90)"/><g class="r" transform="matrix(1, 0, 0, 1, -12, -12)"><text class="q" transform="translate(84.13 112.42)"><tspan x="0" y="0">SOULHub</tspan></text></g></g></svg>